<svg xmlns="http://www.w3.org/2000/svg" width="204" height="42" viewBox="0 0 204 42" fill="none"><path d="M49.6644 10.802C49.6698 10.6383 49.7369 10.4827 49.852 10.3669 49.967 10.251 50.1215 10.1835 50.2842 10.178H54.199C54.3617 10.1835 54.5161 10.251 54.6312 10.3669 54.7463 10.4827 54.8133 10.6383 54.8188 10.802V32.5483C54.8133 32.7121 54.7463 32.8676 54.6312 32.9835 54.5161 33.0993 54.3617 33.1669 54.199 33.1724H50.2838C50.1212 33.1669 49.9667 33.0993 49.8517 32.9835 49.7366 32.8676 49.6695 32.7121 49.6641 32.5483V10.802H49.6644z" fill="#fff"/><path d="M141.382 19.505C142.022 19.8205 142.619 20.2178 143.158 20.6872 144.506 22.0618 145.263 23.9163 145.263 25.8485 145.263 27.7808 144.506 29.6352 143.158 31.0099 142.503 31.7062 141.712 32.258 140.835 32.6302 139.957 33.0025 139.012 33.1871 138.06 33.1723H130.415C130.168 33.1723 129.931 33.0734 129.756 32.8974 129.581 32.7214 129.483 32.4826 129.483 32.2337V10.8705C129.483 10.6215 129.581 10.3828 129.756 10.2068 129.931 10.0307 130.168 9.93185 130.415 9.93185h5.511C136.781 9.91981 137.629 10.0851 138.417 10.4175 139.205 10.7498 139.917 11.2421 140.508 11.8636 141.095 12.4384 141.56 13.127 141.875 13.8877 142.19 14.6485 142.348 15.4656 142.341 16.2897 142.342 17.4044 141.81 18.7402 141.382 19.505zM135.927 14.4734H134.11v4.1513C134.52 18.6055 135.098 18.6686 135.842 18.6112 136.939 18.485 137.876 17.6593 137.876 16.4775 137.877 15.9528 137.673 15.4487 137.309 15.0738 136.944 14.6989 136.448 14.4833 135.927 14.4734h0zM140.738 25.8484C140.728 25.1214 140.447 24.4246 139.952 23.896 139.456 23.3674 138.781 23.0454 138.061 22.9937 136.687 22.918 135.498 22.9792 134.109 22.9792v5.637h3.952C138.417 28.6127 138.77 28.5381 139.098 28.3968 139.426 28.2556 139.722 28.0504 139.971 27.7932 140.22 27.5359 140.416 27.2316 140.548 26.8979 140.679 26.5641 140.744 26.2074 140.738 25.8484h0z" fill="#fff"/><path d="M59.3403 10.4404C59.3472 10.2801 59.4157 10.1288 59.5313 10.0185 59.647 9.90811 59.8008 9.84741 59.9601 9.84919H60.448C60.7745 9.84919 61.0029 10.0792 61.2627 10.3417L73.7906 22.4631H73.8219V10.8017C73.8219 10.7197 73.8379 10.6385 73.869 10.5628 73.9001 10.4871 73.9458 10.4183 74.0033 10.3603 74.0609 10.3024 74.1292 10.2564 74.2044 10.225 74.2797 10.1937 74.3603 10.1776 74.4417 10.1776h3.9148C78.5192 10.1831 78.6737 10.2507 78.7887 10.3665 78.9038 10.4824 78.9708 10.6379 78.9763 10.8017V32.9089C78.9786 32.99 78.9638 33.0706 78.933 33.1456 78.9022 33.2205 78.8561 33.2881 78.7976 33.3439 78.7391 33.3997 78.6696 33.4425 78.5936 33.4694 78.5176 33.4963 78.4368 33.5068 78.3565 33.5001H78.0304C77.8765 33.504 77.7238 33.4736 77.5829 33.4111 77.4421 33.3487 77.3167 33.2557 77.2157 33.1389L64.5254 20.295H64.4941V32.548C64.4942 32.6299 64.4782 32.7111 64.447 32.7868 64.4159 32.8626 64.3702 32.9314 64.3127 32.9893 64.2551 33.0473 64.1868 33.0932 64.1116 33.1246 64.0364 33.1559 63.9557 33.1721 63.8743 33.172H59.9921C59.8294 33.1665 59.675 33.099 59.5599 32.9831 59.4448 32.8673 59.3778 32.7117 59.3723 32.548L59.3403 10.4404z" fill="#fff"/><path d="M94.4961 9.8492c3.26220000000001.0 5.6769 1.0184 7.8959 3.055C102.459 12.9592 102.514 13.0281 102.552 13.1062 102.591 13.1842 102.612 13.2697 102.615 13.3568S102.603 13.5307 102.57 13.6112C102.537 13.6918 102.487 13.7643 102.424 13.8238L99.8789 16.4847C99.8258 16.5392 99.7624 16.5824 99.6924 16.6119 99.6225 16.6415 99.5474 16.6567 99.4716 16.6567S99.3207 16.6415 99.2507 16.6119C99.1808 16.5824 99.1174 16.5392 99.0642 16.4847 97.8596 15.3852 96.2857 14.7865 94.66 14.8094 90.9732 14.8094 88.2657 17.8972 88.2657 21.5762c0 3.6462 2.74040000000001 6.6684 6.4269 6.6684C96.2945 28.2884 97.8545 27.7255 99.0642 26.6671 99.1854 26.568 99.3382 26.5166 99.4942 26.5224 99.6502 26.5282 99.7988 26.5908 99.9125 26.6986l2.5445 2.7263C102.563 29.5499 102.618 29.7103 102.612 29.8744 102.607 30.0385 102.54 30.1945 102.426 30.3117c-2.121 2.0745-4.971 3.22-7.9277 3.1865C92.9508 33.5063 91.4171 33.2063 89.9851 32.6157 88.5532 32.025 87.2513 31.1552 86.1542 30.0563 85.0572 28.9574 84.1866 27.651 83.5926 26.2122 82.9985 24.7735 82.6927 23.2307 82.6927 21.6726S82.9985 18.5717 83.5926 17.133C84.1866 15.6942 85.0572 14.3879 86.1542 13.289c1.0971-1.099 2.399-1.9687 3.8309-2.5594C91.4171 10.1389 92.9508 9.83894 94.4983 9.84699L94.4961 9.8492z" fill="#fff"/><path d="M105.87 10.802C105.876 10.6382 105.943 10.4827 106.058 10.3668 106.173 10.251 106.328 10.1835 106.49 10.1779H110.503C110.585 10.1779 110.665 10.194 110.74 10.2254 110.816 10.2567 110.884 10.3027 110.941 10.3606 110.999 10.4186 111.045 10.4874 111.076 10.5631 111.107 10.6389 111.123 10.72 111.123 10.802V24.4999c0 2.3978 1.696 3.745 4.01299999999999 3.745 2.35000000000001.0 4.078-1.3469 4.078-3.745V10.802C119.214 10.72 119.23 10.6389 119.261 10.5631 119.292 10.4874 119.338 10.4186 119.395 10.3606 119.453 10.3027 119.521 10.2567 119.596 10.2254 119.671 10.194 119.752 10.1779 119.833 10.1779H123.846C124.009 10.1835 124.163 10.251 124.279 10.3668 124.394 10.4827 124.461 10.6382 124.466 10.802V24.7631c0 4.993-4.17599999999999 8.7392-9.33 8.7392C110.014 33.5023 105.87 29.7574 105.87 24.7631V10.802z" fill="#fff"/><path d="M149.525 10.802C149.524 10.72 149.54 10.6388 149.572 10.5631 149.603 10.4873 149.648 10.4185 149.706 10.3605 149.763 10.3026 149.832 10.2566 149.907 10.2253 149.982 10.1939 150.063 10.1779 150.144 10.1779h12.491C162.664 10.1779 162.694 10.1799 162.723 10.1839 162.813 10.2008 162.898 10.2384 162.971 10.2939 163.045 10.3493 163.104 10.421 163.146 10.5035 163.187 10.5859 163.209 10.6769 163.209 10.7692 163.21 10.8615 163.189 10.9528 163.149 11.0358l-1.476 3.283C161.58 14.5243 161.431 14.6986 161.243 14.8208 161.055 14.9431 160.835 15.0082 160.611 15.0082H154.613v3.6024h4.875C159.653 18.6111 159.81 18.677 159.926 18.7939 160.042 18.9108 160.108 19.0692 160.108 19.2346v3.5809C160.108 22.8975 160.092 22.9787 160.061 23.0544 160.03 23.1302 159.984 23.199 159.927 23.257 159.869 23.3149 159.801 23.3609 159.726 23.3922 159.65 23.4236 159.57 23.4396 159.488 23.4396h-4.875v4.904H163.65C163.732 28.3436 163.812 28.3597 163.887 28.3911 163.963 28.4224 164.031 28.4684 164.089 28.5263 164.146 28.5843 164.192 28.6531 164.223 28.7288 164.254 28.8046 164.27 28.8857 164.27 28.9677v3.5806C164.27 32.6302 164.254 32.7114 164.223 32.7871 164.192 32.8629 164.146 32.9317 164.089 32.9896 164.031 33.0476 163.963 33.0936 163.887 33.1249 163.812 33.1563 163.732 33.1724 163.65 33.1723H150.144C150.062 33.1724 149.982 33.1563 149.906 33.125 149.831 33.0937 149.763 33.0477 149.705 32.9897 149.648 32.9318 149.602 32.8629 149.571 32.7872 149.54 32.7114 149.524 32.6302 149.524 32.5483L149.525 10.802z" fill="#fff"/><path d="M172.151 15.0067H167.019C166.936 15.0072 166.854 14.9906 166.777 14.9581 166.701 14.9255 166.632 14.8777 166.574 14.8174 166.5 14.7326 166.451 14.6281 166.434 14.5163 166.416 14.4045 166.431 14.2901 166.476 14.1864L167.766 10.9159C167.853 10.6976 168.002 10.5103 168.195 10.3783 168.388 10.2464 168.616 10.1758 168.849 10.1758h17.083C185.961 10.1758 185.991 10.1778 186.02 10.1818 186.111 10.199 186.196 10.2376 186.269 10.2946 186.342 10.3515 186.401 10.425 186.441 10.5092 186.48 10.5934 186.499 10.6858 186.496 10.7789 186.494 10.872 186.469 10.963 186.424 11.0447l-1.428 3.2603C184.904 14.513 184.755 14.6898 184.566 14.814S184.156 15.0043 183.93 15.0045h-6.624V32.5461C177.306 32.7115 177.24 32.8699 177.124 32.9868 177.008 33.1038 176.85 33.1697 176.686 33.1702H172.772C172.607 33.1697 172.45 33.1039 172.334 32.9869 172.218 32.87 172.152 32.7115 172.152 32.5461L172.151 15.0067z" fill="#fff"/><path d="M182.072 32.318l10.211-22.1075C192.336 10.1066 192.416 10.0186 192.513 9.95518 192.61 9.89179 192.723 9.85525 192.838 9.84921H193.165C193.28 9.8553 193.392 9.89187 193.49 9.95526 193.587 10.0186 193.666 10.1066 193.719 10.2105L203.931 32.318C203.98 32.41 204.004 32.5137 203.999 32.6182 203.995 32.7228 203.963 32.8242 203.906 32.9117 203.849 32.9993 203.77 33.0697 203.676 33.1156 203.583 33.1615 203.479 33.1811 203.376 33.1723H199.754C199.167 33.1723 198.906 32.9752 198.613 32.352L197.438 29.7568h-8.874L187.39 32.3849C187.3 32.6231 187.139 32.8273 186.928 32.9687 186.717 33.1101 186.468 33.1817 186.215 33.1736H182.627C182.523 33.1824 182.419 33.1628 182.325 33.1169 182.232 33.0709 182.152 33.0003 182.096 32.9126 182.039 32.8248 182.006 32.7232 182.002 32.6185 181.998 32.5138 182.022 32.41 182.072 32.318zm13.409-7.0296L193.001 19.8685H192.97l-2.447 5.4199h4.958z" fill="#fff"/><path d="M20.8273.0c-4.1192.0-8.146 1.22991-11.57102 3.53421C5.83125 5.83851 3.16176 9.1137 1.58539 12.9456.00902386 16.7775-.403426 20.994.4002 25.062c.80363 4.0679 2.78723 7.8046 5.69998 10.7374 2.91276 2.9328 6.62382 4.9301 10.66392 5.7392C20.8042 42.3478 24.9919 41.9325 28.7976 40.3453c3.8057-1.5873 7.0584-4.2751 9.347-7.7238C40.4331 29.1729 41.6546 25.1184 41.6546 20.9708 41.6546 15.409 39.4603 10.075 35.5544 6.1422 31.6486 2.20942 26.3511.0 20.8273.0zM7.34529 25.0779C6.71007 24.4346 6.35352 23.5643 6.35352 22.6571S6.71007 20.8796 7.34529 20.2363L17.6971 9.81322c.6389-.63959 1.5032-.9986 2.4042-.9986.901000000000003.0 1.7653.35901 2.4043.9986C23.1408 10.4566 23.4973 11.3269 23.4973 12.234 23.4973 13.1412 23.1408 14.0115 22.5056 14.6548L12.1535 25.0779C11.5146 25.7174 10.6503 26.0764 9.74938 26.0764 8.84849 26.0764 7.98421 25.7174 7.34529 25.0779zM29.6459 32.5126C29.0367 33.1258 28.2607 33.5433 27.4158 33.7124 26.571 33.8815 25.6954 33.7945 24.8996 33.4626 24.1039 33.1306 23.4237 32.5685 22.9452 31.8474 22.4667 31.1262 22.2113 30.2784 22.2113 29.4111S22.4667 27.696 22.9452 26.9749C23.4237 26.2537 24.1039 25.6916 24.8996 25.3597 25.6954 25.0277 26.571 24.9408 27.4158 25.1099 28.2607 25.2789 29.0367 25.6965 29.6459 26.3096 30.0505 26.7169 30.3715 27.2004 30.5904 27.7325 30.8094 28.2647 30.9221 28.8351 30.9221 29.4111c0 .5761-.1127 1.1464-.331700000000001 1.6786C30.3715 31.6219 30.0505 32.1054 29.6459 32.5126zm3.5946-17.3864L17.7553 30.7181c-.6389.639600000000002-1.5032.9986-2.4042.9986-.901.0-1.7653-.358999999999998-2.4043-.9986C12.3116 30.0747 11.9551 29.2044 11.9551 28.2973c0-.9072.356500000000001-1.7775.9917-2.4209L28.4324 10.2843c.6389-.63963 1.5032-.99864 2.4042-.99864s1.7653.35901 2.4042.99864C33.8761 10.9276 34.2327 11.798 34.2326 12.7053 34.2326 13.6125 33.8759 14.4829 33.2405 15.1262z" fill="#fff"/></svg>